<?xml version="1.0" encoding="utf-8" ?><svg xmlns="http://www.w3.org/2000/svg" xmlns:xlink="http://www.w3.org/1999/xlink" width="1024" height="1024" viewBox="0 0 1024 1024"><path fill="white" d="M0 0L1024 0L1024 1024L0 1024L0 0Z"/><path fill="#4A2355" d="M803.98 350.688L804.501 350.637C847.182 346.877 907.972 375.796 911.789 423.356C947.897 435.365 972.835 463.258 970.99 502.776C969.237 540.303 930.605 558.646 898.444 542.621C892.263 539.541 888.843 535.973 884.425 530.757C863.927 555.135 870.444 573.537 832.745 578.356C828.888 585.559 829.342 588.039 830.19 595.881C830.404 596.807 830.313 596.594 830.18 597.601C828.413 598.425 825.134 597.809 822.959 597.906C805.039 598.706 791.171 608.057 775.606 615.708C775.604 606.937 775.678 594.771 770.502 587.2C766.592 582.087 759.061 584.129 753.713 584.612C743.972 585.491 727.398 589.362 720.786 579.84C717.127 574.57 719.702 570.379 720.756 564.93C721.68 560.151 716.263 559.319 713.61 555.731C713.527 551.304 716.666 550.283 720.417 550.237L721.134 550.232C720.798 547.704 716.207 545.04 715.114 542.518C711.386 535.077 723.085 535.371 723.419 529.996C723.795 523.924 714.906 521.41 716.857 514.244C717.921 513.076 722.831 512.503 724.603 512.196C737.213 510.016 744.566 501.572 745.856 488.965C746.422 483.437 738.009 483.61 736.256 479.587C737.816 477.42 745.773 473.197 748.037 470.187C751.885 465.055 755.724 459.73 759.346 454.429C765.385 445.592 773.158 436.684 778.662 427.562L779.058 426.899C769.279 418.724 759.861 410.133 758.561 396.802C755.901 369.521 780.024 353.503 803.98 350.688Z"/><path fill="white" d="M808.036 355.709C830.314 354.028 860.798 364.569 878.338 378.069C893.746 389.927 903.357 403.096 906.241 422.349C891.352 422.126 882.223 423.793 867.776 426.314C879.694 426.813 893.081 425.055 905.101 427.347C942.215 434.423 971.151 470.876 964.675 509.04C962.527 521.695 955.564 530.083 945.166 537.093C936.782 541.863 927.55 544.154 917.877 542.883C889.055 539.097 884.138 518.517 868.883 499.644C850.075 476.374 821.384 456.448 793.877 445.287C789.112 443.353 781.52 440.248 776.728 439.701C779.441 436.018 783.113 431.647 784.484 427.29C785.265 425.192 781.86 422.166 780.27 420.959C763.964 408.578 756.91 389.262 771.318 372.035C780.647 360.881 793.649 356.949 808.036 355.709Z"/><path fill="white" d="M773.855 443.337C820.959 460.434 854.224 482.913 880.669 526.276C875.812 532.132 869.066 543.856 864.901 550.749L864.222 551.38C863.801 551.064 852 531.679 849.179 528.468C824.215 500.059 794.522 477.44 758.629 465.157C762.947 457.497 768.398 450.214 773.855 443.337Z"/><path fill="white" d="M815.432 525.134C841.54 524.746 828.961 557.957 811.537 561.616C807.879 562.385 799.081 563.656 798.144 558.723L798.684 558.185C802.69 559.288 803.149 559.808 807.405 559.262C815.861 556.199 822.907 549.834 825.693 541.154C829.831 528.261 818.712 524.351 808.856 530.203C806.413 531.654 804.275 533.564 801.761 535.128C802.27 534.288 802.8 533.462 803.349 532.648C806.45 528.102 810.177 526.122 815.432 525.134Z"/><path fill="#4A2355" d="M511.377 88.52C516.869 88.3143 581.357 121.283 591.07 126.121C635.641 148.322 678.661 175.968 724.02 196.858C741.653 204.978 756.068 210.675 775.881 211.322C720.433 222.303 618.128 151.092 565.613 128.634C567.82 133.595 569.342 139.238 568.867 144.709C568.446 149.927 565.829 154.721 561.667 157.897C554.948 163.086 544.037 163.253 538.677 155.855C533.467 148.665 538.52 135.563 548.666 138.472C552.043 139.441 552.608 141.119 554.286 143.92C551.869 132.127 544.143 125.368 532.523 132.239C527.898 135.008 524.606 139.548 523.411 144.804C522.19 150.179 523.107 156.612 526.031 161.324C532.745 172.143 545.932 170.738 557.09 172.366C566.687 173.861 576.234 175.66 585.718 177.759C648.047 191.331 705.479 224.845 751.277 269.049C769.834 286.96 790.96 314.074 804.986 335.924L798.088 336.489C794.846 330.426 790.927 325.016 786.912 319.453C733.809 244.527 653.063 193.823 562.508 178.539C477.644 164.39 390.657 185.022 321.188 235.778C303.568 248.299 287.017 262.26 271.705 277.517C224.065 325.926 189.71 392.029 179.003 459.193C165.137 547.291 187.125 637.273 240.058 709.047C293.695 782.549 374.216 831.864 464.065 846.241C538.607 857.919 617.554 841.641 678.853 796.903C678.19 800.078 677.572 803 676.746 806.142C649.417 826.943 603.848 843.951 570.371 850.198C561.471 852.817 547.654 851.845 539.269 854.841C520.894 861.41 517.441 886.995 536.362 895.447C543.47 898.622 552.238 894.705 554.964 888.114L554.377 887.739C548.619 889.644 544.517 889.501 540.245 884.447C532.581 875.38 544.054 861.501 554.328 864.087C568.4 867.629 573.525 879.939 570.945 893.533C579.638 888.629 588.452 883.941 597.377 879.473C618.385 868.412 639.294 857.163 660.101 845.729C666.729 842.105 673.559 837.258 680.308 834.279C683.259 832.977 690.965 833.634 694.507 832.998C702.203 831.618 709.566 829.355 717.058 827.165C712.38 830.332 705.346 833.942 700.213 837.003C686.737 845.123 673.166 853.081 659.5 860.877C613.026 887.232 561.344 914.986 512.265 935.944C495.819 929.193 478.158 920.387 462.183 912.413C441.838 902.418 421.746 891.918 401.924 880.922C383.327 870.381 364.644 859.992 345.877 849.755C321.195 836.334 296.147 823.51 269.208 815.157C260.685 812.515 254.824 812.17 246.627 810.305C295.537 803.166 376.995 853.993 420.423 876.148C450.597 891.541 480.984 908.273 512.652 921.322C521.652 917.698 529.811 913.154 538.703 909.348C533.267 907.537 527.836 905.75 523.244 902.182C517.219 897.48 513.304 890.581 512.359 882.998C510.928 871.687 515.829 864.409 522.246 855.983C498.795 855.864 477.291 854.613 454.066 850.525C383.67 838.136 320.912 803.217 270.186 753.305C206.263 689.646 169.937 603.402 169.051 513.191C169.002 423.703 204.337 337.825 267.35 274.284C316.433 224.591 376.012 189.524 444.746 175.46C469.676 170.359 495.057 168.666 520.459 168.514C507.21 151.88 512.165 131.607 530.329 121.255C535.01 118.588 540.019 118.079 545.297 117.716C534.005 112.785 523.596 106.987 511.929 102.578C438.489 134.995 368.245 175.866 299.71 217.54C282.086 228.257 265.649 240.123 248.96 252.176C243.946 255.798 238.335 260.201 232.919 263.08C246.146 247.659 266.568 232.368 282.711 219.996C342.192 174.407 405.728 137.077 473.592 105.504C485.161 100.122 499.451 92.8383 511.377 88.52Z"/><path fill="#4A2355" d="M494.806 187.71C498.686 187.29 507.079 187.326 511.144 187.302C537.204 186.977 563.193 190.069 588.449 196.5C663.737 215.446 743.823 273.263 783.762 340.015L773.995 343.669C762.046 326.456 750.11 310.371 735.328 295.394C705.181 264.848 644.202 217.765 599.983 217.699C588.016 217.681 574.669 221.115 566.063 229.884C561.059 234.982 557.895 241.878 558.102 249.102C558.236 254.731 560.685 260.055 564.871 263.821C574.052 271.925 583.426 268.357 590.469 259.926C588.727 260.977 585.041 263.474 583.312 263.728C572.115 265.371 565.788 248.459 572.971 240.701C578.995 233.947 588.573 235.504 595.027 240.966C605.96 250.217 605.544 266.45 596.309 276.798C585.376 289.05 566.138 287.595 554.937 276.592C548.415 270.085 544.747 261.252 544.742 252.039C544.736 241.81 548.714 233.309 555.926 226.202C568.685 213.629 584.666 211.334 601.772 211.455C517.739 182.46 424.816 199.177 350.087 244.656C378.493 251.475 398.981 273.32 390.424 303.756C381.766 334.553 338.743 341.374 324.54 311.022C321.162 303.945 320.822 295.795 323.598 288.461C333.261 263.513 371.842 268.884 360.815 295.831C358.478 301.541 350.016 304.641 344.271 306.289C347.046 309.768 351.384 313.531 355.469 313.783C381.148 315.364 385.003 280.731 372.139 265.154C363.466 254.652 354.95 250.919 343.32 249.104C330.405 256.313 316.398 268.373 305.267 278.131C219.585 353.241 180.392 470.857 206.732 582.066C213.697 611.473 225.048 638.636 239.512 665.371C272.477 721.223 313.658 760.522 370.874 790.984C442.515 828.718 526.216 836.432 603.546 812.426C583.588 807.336 556.805 801.729 547.654 780.294C544.402 772.674 543.867 763.979 547.198 756.224C550.45 748.689 556.588 742.774 564.237 739.803C586.847 730.98 611.309 753.162 600.458 774.669C597.923 779.761 593.362 783.551 587.892 785.111C584.051 786.195 580.155 785.967 576.678 783.9C573.579 782.048 571.346 779.038 570.473 775.536C569.639 772.182 570.156 766.955 572.242 764.246C577.37 757.587 580.138 762.573 582.211 762.136C583.532 757.764 577.776 755.298 574.547 754.623C565.537 752.251 557.158 765.155 558.69 772.976C563.11 795.535 599.91 809.13 620.205 806.194C625.309 805.456 636.746 799.366 641.567 797.023C657.465 789.299 671.499 779.708 685.587 769.265C684.059 775.197 682.452 781.108 680.769 786.997C636.753 816.594 590.59 832.067 537.579 835.402C250.523 853.463 76.3304 519.918 270.727 298.412C327.635 233.062 408.325 193.199 494.806 187.71Z"/><path fill="#4A2355" d="M690.217 382.605C699.958 381.525 716.35 388.651 722.954 395.623C699.033 427.531 678.845 482.34 672.149 522.231C670.412 532.579 665.594 570.631 672.022 581.245C672.39 581.854 674.913 582.511 675.812 582.542C685.535 582.876 694.83 574.707 701.504 568.936C696.376 578.757 690.382 588.364 679.26 592.002C672.915 594.077 666.707 593.468 660.813 590.362C652.532 585.998 647.003 578.29 644.39 569.425C635.343 538.744 660.379 455.381 672.663 426.015C676.331 417.245 681.328 409.007 685.914 400.694C668.119 410.108 648.589 434.48 636.623 451.93C615.182 483.197 590.322 525.893 583.976 563.943C582.896 570.414 584.011 577.967 585.12 584.232C559.665 587.194 542.086 567.551 543.056 542.282C543.463 531.688 548.718 515.657 551.744 505.304C561.528 470.549 573.989 436.605 589.014 403.774C589.363 402.947 589.308 402.94 589.472 402.045L588.611 401.888C569.227 410.235 542.149 451.819 531.239 469.725C515.32 496.419 502.023 524.532 489.539 552.959C482.973 567.908 478.562 577.829 482.505 594.05C477.503 592.679 472.758 591.043 468.852 587.423C460.654 579.827 461.006 566.388 465.387 556.867C472.966 540.495 482.577 525.161 491.981 509.722C515.692 470.793 540.233 431.471 572.611 399.042C579.489 392.154 588.953 383.513 599.188 383.732C607.582 383.911 621.636 388.491 627.615 394.465C617.42 404.953 613.184 414.3 606.718 427.001C588.64 462.514 574.756 509.626 573.656 549.532C575.223 545.749 576.87 542.001 578.596 538.289C587.016 520.09 596.177 502.243 606.055 484.792C620.436 459.905 664.556 391.958 690.217 382.605Z"/><path fill="#4A2355" d="M819.387 603.18C827.66 602.346 832.493 602.201 836.529 610.745C839.242 616.487 842.084 622.322 844.869 628.033C836.785 624.116 827.958 619.381 819.012 618.443C804.338 616.904 791.214 619.275 779.487 628.297C784.174 627.371 789.717 625.291 794.516 624.123C808.679 620.678 819.706 619.959 833.144 625.586C820.234 623.623 807.032 625.414 795.111 630.746C778.695 638.073 763.108 654.972 752.509 669.271C748.589 674.56 744.808 679.079 742.42 685.268C748.763 679.423 755.492 671.388 761.883 665.119C772.598 654.609 781.948 647.85 794.186 639.419C830.346 659.725 840.856 699.256 847.01 737.385L847.567 741.643C813.759 751.968 802.605 765.086 774.538 784.134C754.067 798.028 714.398 816.079 689.987 819.888C691.596 806.142 694.659 792.196 698.121 778.717C703.715 756.936 710.812 733.384 719.491 712.668C728 692.354 740.923 672.788 754.484 655.598C760.058 648.532 766.368 640.7 772.864 634.486C773.927 629.809 774.428 625.789 774.907 621.037C791.889 613.817 798.34 606.255 819.387 603.18Z"/><path fill="#4A2355" d="M427.786 382.712C436.69 382.389 449.201 382.738 456.806 387.904C461.589 391.157 464.787 396.268 465.621 401.991C467.187 412.488 462.25 424.74 451.753 428.59C449.308 429.486 446.632 429.642 444.06 429.91C472.627 418.615 446.872 409.714 431.173 409.265C403.92 408.486 373.874 412.12 352.115 429.894C331.849 449.485 345.866 456.879 363.746 465.363C386.103 475.972 447.158 484.45 450.445 513.672C457.123 573.028 385.929 598.146 337.912 594.319C315.576 592.539 292.606 585.607 294.549 558.412C302.268 525.189 338.316 519.199 366.771 515.158C352.25 520.709 336.793 525.577 325.144 536.326C319.285 541.732 310.302 553.53 318.242 560.695C325.673 567.399 342.091 569.318 351.856 568.639C378.867 566.761 411.146 558.937 431.048 539.608C435.13 535.451 438.809 528.356 438.255 522.614C437.991 518.306 435.445 514.085 432.109 511.405C424.827 505.554 415.679 502.58 406.81 499.787C394.612 495.945 381.72 493.579 369.448 489.855C350.893 484.224 326.55 475.551 325.042 452.682C324.234 440.427 331.091 426.705 339.248 417.754C362.628 393.691 395.111 384.323 427.786 382.712Z"/><path fill="#4A2355" d="M797.884 787.204C841.671 784.619 847.876 834.525 821.83 860.207C811.928 869.97 801.529 875.345 787.548 875.744C759.681 876.539 743.813 850.687 764.107 829.128C772.307 821.252 784.609 820.19 792.041 829.234C805.734 845.894 788.891 866.201 773.282 848.868C770.348 845.609 771.11 840.18 771.878 836.11C753.903 865.518 800.416 878.721 824.234 848.032C830.525 840.067 833.384 829.924 832.177 819.847C829.89 801.823 815.368 790.49 797.236 793.203C795.401 793.434 793.328 793.763 791.769 794.856C781.954 801.736 772.356 809.218 762.818 816.465C748.75 827.218 734.395 837.591 719.769 847.571C666.674 884.203 610.629 916.361 552.21 943.713C539.161 949.879 525.313 955.659 512.061 961.516C506.765 958.554 496.83 954.823 490.765 952.127C477.568 946.237 464.489 940.087 451.536 933.679C411.801 913.72 373.006 891.941 335.275 868.412C331.914 866.378 328.543 864.249 325.124 862.272C302.401 849.132 280.226 833.108 255.016 825.131C244.185 821.704 227.987 822.645 226.737 836.908C225.724 848.472 233.738 859.4 245.322 861.399C248.11 861.865 252.929 861.58 255.274 859.834C255.825 857.508 254.209 856.647 252.696 855.017C250.894 853.204 249.24 851.342 247.951 849.134C242.416 839.653 252.23 827.882 262.627 832.417C270.619 835.903 275.313 846.355 271.904 854.426C266.248 867.817 248.684 870.547 236.302 865.367C228.473 862.102 222.282 855.834 219.114 847.965C214.255 835.615 217.979 819.585 231.848 815.595C257.531 808.206 285.459 827.198 306.975 839.24C322.133 847.724 337.052 856.841 352.253 865.305C384.958 883.918 418.088 901.774 451.616 918.86C471.572 928.857 491.738 938.428 512.101 947.566C578.429 917.854 641.894 886.265 703.344 847.096C713.642 840.514 723.851 833.794 733.967 826.937C743.102 820.648 751.604 814.125 761.283 808.634C770.533 803.386 779.675 797.739 788.669 792.074C791.568 790.248 794.524 787.909 797.884 787.204Z"/><path fill="#4A2355" d="M511.283 62.4813C514.775 62.2911 569.037 88.6961 575.674 92.063C610.049 109.731 643.863 128.47 677.066 148.252C692.188 157.125 706.496 166.518 722.185 175.597C738.929 185.286 761.403 201.845 781.713 200.919C785.282 200.756 790.637 198.19 792.95 195.45C802.651 183.954 792.447 167.619 779.863 163.796C774.483 162.142 771.791 162.414 766.58 162.715C790.839 186.828 761.73 206.308 752.167 181.393C750.438 176.992 750.567 172.079 752.524 167.775C761.299 148.197 796.97 156.027 803.87 176.785C806.018 183.196 805.423 190.209 802.227 196.168C783.821 230.173 724.78 188.232 703.096 175.642C680.854 162.771 658.43 150.217 635.831 137.982C609.456 123.643 582.741 109.938 555.71 96.8789C547.847 93.0726 539.918 89.1896 531.986 85.5394C525.141 82.389 518.579 79.9088 511.969 76.179C501.876 82.0751 483.373 89.5567 472.024 94.8545C446.33 106.698 421.061 119.442 396.264 133.061C363.335 151.058 331.177 170.43 299.875 191.126C280.932 203.526 262.533 217.199 242.883 228.525C234.601 233.299 224.417 237.11 214.779 234.795C203.853 232.288 193.467 222.259 189.64 211.776C179.351 183.591 203.645 152.505 231.69 148.47C243.657 146.959 255.412 150.829 263.504 159.744C279.593 177.469 260.911 208.309 238.539 201.292C233.601 199.73 229.528 196.195 227.287 191.525C219.265 174.684 242.514 156.849 253.056 181.622C257.035 171.764 256.93 163.918 245.797 159.575C225.8 151.776 202.889 168.613 195.092 186.417C187.842 202.971 196.004 222.603 212.552 229.229C228.334 235.147 245.628 222.094 257.134 212.648C279.82 194.022 302.371 177.451 326.754 161.157C369.98 132.74 415.147 107.392 461.922 85.3005C478.293 77.4097 494.798 70.104 511.283 62.4813Z"/><path fill="#4A2355" d="M177.117 224.064C181.327 223.656 185.822 224.044 189.722 225.686C209.176 234.045 206.394 257.523 199.9 273.738C189.168 300.537 173.727 327.103 159.145 352.038C141.102 382.966 123.346 414.06 105.879 445.316C99.2652 457.263 93.0571 468.942 86.896 481.129C82.0299 490.754 76.8381 500.232 72.7746 510.278C74.7112 515.569 78.3954 522.939 80.8746 528.12C86.7806 540.38 92.895 552.539 99.2153 564.591C128.165 619.904 159.805 672.849 190.914 726.899C198.986 740.923 211.026 772.153 204.622 787.756C188.833 826.226 133.168 782.994 160.226 754.109C167.767 745.882 185.622 743.047 189.591 756.346C195.995 777.799 167.112 780.568 162.339 762.671L162.184 762.067C156.457 771.485 159.66 778.632 166.299 786.414C174.915 794.28 188.775 798.288 194.715 784.772C199.632 773.586 193.456 755.538 188.586 744.722C177.432 720.078 161.364 697.816 147.76 674.519C134.693 652.142 120.314 630.232 107.746 607.594C90.0756 575.765 71.1401 543.772 57.049 510.185C64.5012 492.299 75.4315 472.909 84.819 455.898C106.666 416.309 130.948 377.857 153.988 338.928C165.245 319.906 177.97 299.803 187.567 279.988C191.575 270.52 196.867 255.887 194.617 245.548C190.963 228.755 169.003 231.589 162.294 244.807C158.292 252.691 158.038 256.603 160.018 264.928C163.482 257.129 170.312 249.329 179.699 253.641C182.86 255.102 185.291 257.786 186.432 261.075C187.712 264.784 187.433 268.854 185.659 272.354C178.557 286.094 157.176 282.008 154.509 264.702C151.879 247.643 158.277 228.346 177.117 224.064Z"/><path fill="#4A2355" d="M210.056 254.826C210.597 256.319 210.104 259.882 209.964 261.595C205.627 314.585 179.551 361.397 155.053 407.284C136.621 441.811 116.829 475.561 99.2521 510.384C103.984 523.153 117.223 546.786 124.11 559.397L151.544 609.942C173.256 649.548 219.287 730.5 209.315 776.011C209.007 771.458 208.576 766.914 208.022 762.384C201.193 723.009 173.542 676.169 153.879 641.316C139.606 616.396 125.572 591.34 111.777 566.152C102.335 548.894 91.2516 528.497 83.4115 510.575C92.6992 490.454 107.658 464.742 118.689 445.369C135.859 415.338 152.721 385.132 169.274 354.757C183.991 327.239 204.458 285.508 210.056 254.826Z"/><path fill="#4A2355" d="M818.94 631.683C826.555 630.614 840.812 631.919 847.132 636.875C866.028 651.692 880.915 688.505 888.967 710.845C893.198 722.583 896.563 738.563 898.823 749.844C894.669 746.409 892.482 744.918 887.713 742.501C875.996 736.683 866.058 737.861 853.771 739.993C851.653 708.62 839.432 671.843 817.798 648.746C813.234 643.873 806.923 639.695 801.261 636.171C808.053 633.73 811.846 632.611 818.94 631.683Z"/><path fill="#4A2355" d="M840.097 220.184C860.139 218.893 870.595 239.157 869.045 256.742C867.971 268.924 858.228 278.565 845.572 276.328C833.702 274.23 828.47 257.168 840.16 251.165C843.669 249.367 847.76 249.078 851.487 250.365C857.418 252.412 859.972 256.609 862.501 261.82C864.655 255.795 864.124 253.369 862.946 247.049C860.071 231.616 836.938 221.178 828.671 238.133C823.097 249.564 829.375 264.762 833.82 276.125C844.415 300.318 859.127 327.994 872.191 351.402C867.588 348.826 861.89 346.382 857.058 343.941C853.165 336.329 847.917 328.423 843.884 320.632C833.449 300.253 822.751 278.434 818.906 255.718C816.147 239.423 821.118 222.17 840.097 220.184Z"/><path fill="#4A2355" d="M939.178 560.157L939.533 560.206C939.81 562.643 888.735 654.641 883.442 664.146L881.87 660.84C879.834 656.991 878.434 654.561 876.028 650.949C879.962 645.641 888.439 628.867 891.867 622.462C902.463 602.501 913.183 582.606 924.025 562.777C928.844 562.23 934.355 561.061 939.178 560.157Z"/><path fill="#4A2355" d="M900.04 557.766C903.756 559.307 907.908 560.597 911.748 561.875C908.433 569.659 901.101 582.377 896.873 590.118L870.076 639.134C869.299 640.098 869.783 639.879 868.746 640.085C866.191 637.554 863.523 633.307 860.304 629.903C863.719 624.949 868.678 614.863 871.792 609.34C881.306 592.463 890.042 574.338 900.04 557.766Z"/><path fill="#4A2355" d="M258.723 764.577C259.509 764.631 259.733 764.763 260.498 764.99C261.053 766.206 261.028 766.719 260.634 768.283C255.897 787.092 236.268 796.132 221.71 806.243C213.589 811.882 206.076 817.189 198.258 822.65C197.71 822.96 197.382 823.042 196.79 823.258C197.104 822.122 201.329 817.595 202.308 816.435C209.499 807.883 216.804 799.428 224.224 791.074C233.955 780.032 243.533 767.737 258.723 764.577Z"/><path fill="#4A2355" d="M869.537 753.494C870.657 753.47 871.692 753.543 872.807 753.606C877.127 757.493 872.55 776.06 869.916 781.473C858.839 804.237 829.581 805.986 821.255 779.234C820.39 775.83 820.092 773.071 819.653 769.593L825.937 765.128C826.834 771.988 827.809 778.356 832.797 783.638C840.665 791.967 852.233 789.411 859.543 781.813C867.354 773.693 869.512 764.427 869.537 753.494Z"/><path fill="#4A2355" d="M824.556 200.995L824.776 201.213L824.77 201.917C820.308 208.202 815.388 214.213 810.804 220.253C795.19 240.826 785.621 251.003 762.509 262.398L762.267 262.053C762.858 259.707 765.098 256.714 766.201 254.467C774.117 238.345 786.859 229.647 800.839 218.965C808.675 212.884 816.582 206.894 824.556 200.995Z"/><path fill="#4A2355" d="M394.823 623.136C414.526 623.212 411.2 646.951 394.123 650.956C374.824 652.134 377.295 626.049 394.823 623.136Z"/><path fill="white" d="M395.218 626.611C404.782 627.375 405.166 636.584 400.824 643.429C398.985 646.328 396.818 646.913 393.558 647.557C380.304 645.896 383.834 629.438 395.218 626.611Z"/><path fill="#4A2355" d="M621.577 623.585C624.457 623.411 627.953 623.451 630.886 623.41C630.7 625.241 626.427 649.54 626.178 650.166C624.66 650.648 624.774 650.636 623.238 650.204C621.901 648.1 623.052 648.525 622.247 645.807C620.96 645.958 618.867 648.015 617.628 649.011C615.13 650.383 611.277 651.866 608.949 650.247C600.94 644.68 606.246 630.24 613.711 626.449C617.084 624.737 618.362 624.327 621.577 623.585Z"/><path fill="white" d="M622.952 626.644L624.991 626.799L625.626 627.598C626.704 635.762 621.266 645.776 612.532 647.365C607.419 643.81 608.113 638.502 611.496 633.685C614.561 629.319 617.754 627.568 622.952 626.644Z"/><path fill="#4A2355" d="M542.171 612.036C543.355 612.018 544.627 612.061 545.819 612.077C548.192 613.413 553.378 629.762 554.742 633.5C559.429 628.787 567.578 616.021 571.994 612.996C573.638 612.821 573.733 612.692 575.304 613.321C575.323 613.49 575.427 614.214 575.353 614.48C574.171 618.71 569.875 648.784 567.661 650.483C565.968 650.734 566.049 650.831 564.519 650.128C564.348 649.778 564.178 649.428 564.008 649.078C565.692 641.881 567.438 632.862 568.766 625.827C569.162 624.144 569.41 623.569 569.172 621.83C563.979 627.162 559.312 633.98 553.821 639.447L553.287 639.973L545.099 618.973C544.246 623.422 540.073 648.704 538.795 650.581C537.161 650.928 537.219 650.839 535.557 650.469C534.354 648.387 541.066 616.931 542.171 612.036Z"/><path fill="#4A2355" d="M814.867 247.746C816.733 278.866 826.331 302.825 838.822 330.832C839.721 332.849 842.315 337.947 842.264 339.71C838.693 338.992 836.765 338.655 833.152 338.389C822.785 317.735 809.476 270.212 814.867 247.746Z"/><path fill="#4A2355" d="M592.399 623.519C596.557 623.334 603.674 624.871 602.721 630.897C601.548 638.308 585.775 638.261 582.847 640.119C582.133 643.271 584.682 646.269 587.621 647.2C591.209 648.337 594.031 647.329 597.25 645.608L597.998 645.061C598.862 646.225 598.497 645.624 598.483 647.54C596.331 651.872 587.696 651.194 583.919 649.883C576.955 647.465 577.682 638.137 580.542 632.836C583.436 627.475 586.809 625.295 592.399 623.519Z"/><path fill="white" d="M593.376 626.581C595.291 626.688 596.63 627.018 597.895 628.511C598.301 633.041 592.635 635.077 589.073 635.959C586.519 636.213 585.233 636.966 584.018 634.675C584.347 630.369 589.421 627.31 593.376 626.581Z"/><path fill="#4A2355" d="M367.571 613.149C368.461 613.13 369.351 613.146 370.24 613.198C372.521 613.348 376.407 613.862 377.96 615.591L377.66 616.885C374.289 619.271 368.971 616.354 365.444 617.209C358.062 618.624 358.7 627.142 365.545 629.399C382 634.825 377.709 650.372 361.365 651.155C357.937 651.066 351.784 650.867 350.82 646.972L351.518 646.227C357.26 645.032 364.603 650.724 369.103 644.927C378.775 632.467 345.621 633.951 357.432 617.897C359.986 614.426 363.597 613.697 367.571 613.149Z"/><path fill="#4A2355" d="M472.543 610.551C475.229 610.498 477.554 610.391 479.796 612.021L479.824 613.032C474.208 618.893 470.455 608.032 467.602 623.346C469.978 623.35 474.185 622.688 474.994 625.323C473.068 627.782 469.916 627.062 467.05 626.926C465.122 635.182 462.956 654.636 457.54 659.215C455.168 660.045 449.911 661.67 448.453 659.01C448.501 657.206 448.203 657.213 449.057 655.94C450.398 656.204 451.733 656.491 453.064 656.802C453.583 656.668 454.891 656.358 455.167 655.973C458.4 651.47 461.544 633.03 462.153 627.912L461.59 627.21C459.945 627.166 459.353 627.243 457.781 626.66L457.504 625.747C458.075 623.801 457.512 624.465 458.979 623.482C468.28 623.406 461.35 614.963 472.543 610.551Z"/><path fill="#4A2355" d="M860.195 754.163L861.057 754.392C865.304 759.866 858.534 776.864 843.255 769.167C839.689 766.248 839.012 764.683 837.633 760.491C842.529 758.415 855.109 754.799 860.195 754.163Z"/><path fill="#4A2355" d="M480.715 623.398C482.29 623.422 482.618 623.444 484.163 623.73C486.326 627.359 478.269 642.414 482.929 646.589C485.571 647.085 488.302 646.505 490.515 644.978C498.85 639.26 496.434 625.577 499.582 623.537C501.719 623.807 500.937 623.334 502.242 624.559C502.736 626.683 501.951 629.83 501.57 632.111C500.58 637.019 499.873 646.997 497.242 650.313C495.602 650.941 496.352 650.995 494.911 650.387C494.172 648.791 494.668 646.874 494.907 645.051C494.127 645.69 493.336 646.317 492.536 646.931C485.331 652.442 476.007 654.024 477.228 641.559C477.768 636.043 479.118 628.706 480.715 623.398Z"/><path fill="#4A2355" d="M431.246 640.074C432.276 635.416 432.866 624.532 437.625 623.378L438.411 623.874C438.973 626.141 438.286 628.478 437.853 630.851C436.991 634.51 434.835 648.694 433.242 650.488C431.22 650.714 432.062 650.959 430.536 650.158C430.495 648.424 430.508 647.626 430.165 645.888C427.665 646.403 426.031 648.75 424.07 649.706C407.126 657.964 415.551 630.715 417.244 623.27C418.291 623.331 419.506 623.267 420.413 623.849C421.838 624.764 416.77 642.602 418.412 646.181C418.965 647.387 419.481 647.449 420.634 647.757C424.73 647.123 428.566 643.039 431.246 640.074Z"/><path fill="#4A2355" d="M658.85 623.112C661.403 623.287 664.047 623.639 665.475 625.954L665.133 626.702C661.514 629.083 657.488 624.733 653.636 629.126C652.95 635.834 670.157 638.614 662.093 647.484C658.818 651.086 655.071 651.162 650.523 651.109C648.867 650.609 647.363 650.365 646.14 649.206C646.333 647.336 646.393 647.402 647.372 645.901C649.677 645.569 653.657 650.613 659.422 645.58C661.058 639.362 645.401 635.598 650.585 627.784C652.743 624.53 655.155 623.798 658.85 623.112Z"/><path fill="#4A2355" d="M515.697 610.989C517.33 611.058 517.858 610.968 519.337 611.715C519.828 614.666 513.215 645.808 512.271 650.864C510.625 650.769 509.398 650.871 507.971 650.083C508.164 646.955 509.904 639.596 510.58 636.261C512.275 627.894 513.818 619.296 515.697 610.989Z"/><path fill="#4A2355" d="M450.751 610.387C452.416 610.64 453.612 610.632 454.676 611.69C454.258 616.037 452.672 622.803 451.772 627.252C450.192 634.872 448.763 642.523 447.486 650.2C445.481 650.11 444.738 650.314 443.283 649.358C443.549 643.299 449.263 617.908 450.751 610.387Z"/><path fill="#4A2355" d="M642.895 610.449C643.997 610.529 644.742 610.651 645.834 610.834L646.23 611.555C644.937 620.141 640.846 643.05 638.103 650.86C636.013 650.447 636.206 650.807 634.824 649.597C635.392 645.236 641.483 612.345 642.895 610.449Z"/></svg>