<?xml version="1.0" encoding="utf-8" ?><svg xmlns="http://www.w3.org/2000/svg" xmlns:xlink="http://www.w3.org/1999/xlink" width="1024" height="998" viewBox="0 0 1024 998"><path fill="#5E3F9D" transform="scale(1 0.974609)" d="M810.043 350.212C846.912 349.131 894.662 371.185 908.101 407.645C909.927 412.597 910.969 418.106 911.748 423.314C935.519 430.857 956.913 447.422 965.955 471.032C970.411 482.669 972.276 498.251 969.864 510.488C967.555 522.764 960.371 533.581 949.953 540.471C938.739 547.742 925.088 550.239 912.026 547.409C901.427 545.198 890.562 539.793 884.463 530.529C881.18 534.702 877.834 539.098 875.217 543.678C869.637 553.444 866.121 563.81 856.497 570.448C848.974 575.637 841.495 576.863 832.781 578.83C827.664 588.164 830.244 589.072 830.355 597.881L829.567 598.09C808.498 597.094 793.556 606.24 775.534 615.835C775.605 607.901 776.115 586.016 765.167 584.04C751.611 581.593 729.857 593.308 720.027 578.577C716.52 573.321 723.002 566.622 720.166 561.427C718.277 558.331 712.479 557.798 714.126 552.647C716.217 550.464 718.508 550.218 721.453 549.857C718.935 547.07 714.424 542.975 714.603 539.11C714.775 535.391 720.675 534.7 722.387 532.346C726.24 527.048 716.542 521.336 716.464 516.411C716.454 515.771 717.135 514.298 717.371 514.199C724.429 511.221 730.411 512.271 737.064 506.717C741.488 503.023 744.866 497.215 745.569 491.63C746.508 484.166 739.05 483.036 736.577 479.898C737.4 476.771 745.365 473.154 747.599 470.389C751.661 465.363 755.503 459.864 759.271 454.628C765.866 445.514 772.393 436.35 778.85 427.138C768.667 417.612 759.409 410.148 758.285 394.969C757.569 385.452 760.718 376.047 767.02 368.88C777.774 356.515 794.183 351.378 810.043 350.212ZM944.411 537.516C954.76 530.466 962.237 522.482 964.501 509.805C971.362 471.406 941.87 434.142 904.551 427.373C900.818 426.701 897.037 426.333 893.245 426.273C890.968 426.232 871.297 426.557 870.522 426.281C874.379 423.257 900.991 422.433 906.452 422.532C902.483 400.983 892.261 388.396 874.625 375.605C859.443 364.593 826.281 352.978 807.657 355.645C793.384 357.462 779.463 361.45 770.352 373.371C765.428 379.813 762.651 387.806 763.916 395.97C766.587 413.225 783.038 420.578 784.117 426.412C784.539 428.695 782.522 431.703 781.282 433.49C779.747 435.702 778.05 437.818 776.395 439.942C807.38 446.944 839.83 468.794 861.86 491.609C880.31 510.716 887.525 539.002 916.996 542.985C926.862 544.318 935.701 542.031 944.411 537.516ZM864.926 550.461C869.717 542.623 875.018 533.359 880.873 526.487C875.794 519.227 871.143 512.1 865.742 505.144C844.465 477.737 814.405 458.366 781.998 446.692C779.335 445.732 776.221 444.637 773.763 443.292C768.655 450.065 763.098 457.893 758.617 465.103C785.543 474.666 810.143 489.813 830.805 509.55C840.535 518.752 849.942 528.449 856.943 539.92C858.083 541.788 862.915 550.22 864.616 550.802L864.926 550.461ZM823.001 526.068C812.606 522.909 806.634 527.311 801.02 535.753C807.468 530.586 810.758 527.801 819.417 527.305C831.567 531.205 826.616 542.897 820.492 550.276C816.955 554.538 810.841 558.514 805.368 559.102C803.46 559.307 801.009 558.892 798.803 559.022L798.635 559.648C813.933 572.687 844.587 537.247 823.001 526.068Z"/><path fill="#7C787A" fill-opacity="0.011764706" transform="scale(1 0.974609)" d="M801.02 535.753C806.634 527.311 812.606 522.909 823.001 526.068C821.786 526.443 820.544 526.753 819.417 527.305C810.758 527.801 807.468 530.586 801.02 535.753Z"/><path fill="#5E3F9D" transform="scale(1 0.974609)" d="M511.605 88.5214C521.708 91.0897 544.191 102.914 554.708 108.012C579.147 119.753 603.266 132.148 627.04 145.184C657.399 161.875 687.302 179.164 718.507 194.277C731.041 200.347 743.972 205.806 757.497 209.265C762.277 210.488 768.973 210.682 774.014 211.152C770.922 212.297 763.239 212.486 760.017 212.205C692.743 206.331 626.051 154.732 566.024 129.041C567.892 134.821 568.231 136.91 568.873 142.754C570.511 157.67 549.049 168.21 539.607 156.955C537.366 154.237 536.33 150.723 536.738 147.224C537.78 138.221 547.749 134.153 552.929 141.143L554.828 143.735C551.168 133.765 544.523 125.175 533.186 131.836C528.24 134.723 524.72 139.539 523.472 145.129C522.256 150.668 523.086 157.079 526.37 161.873C532.937 171.456 544.901 170.668 555.267 172.167C560.704 172.953 565.07 173.612 570.505 174.649C647.325 188.839 717.102 228.554 768.528 287.359C783.009 303.89 792.567 317.869 804.815 335.915L798.228 336.619C796.4 333.425 794.456 330.299 792.4 327.247C741.195 251.137 661.993 198.341 572.042 180.357C488.4 163.693 401.568 181.158 330.874 228.865C310 243.14 286.948 261.553 269.388 279.802C225.735 325.17 192.046 388.087 180.528 450.101C164.351 536.774 183.17 626.327 232.866 699.157C285.295 776.084 366.475 828.676 458.113 845.081C535.268 859.521 614.979 842.022 678.992 796.593C678.268 799.855 677.471 803.099 676.601 806.325C642.745 830.399 592.865 848.763 551.567 852.657C542.597 853.502 534.749 854.48 528.61 862.208C524.88 866.904 522.937 873.656 523.864 879.652C524.809 885.4 528.078 890.505 532.904 893.767C542.033 900.072 550.161 895.91 555.87 887.653C530.791 894.435 533.806 862.564 553.186 864.117C558.405 864.585 563.203 867.173 566.46 871.277C571.648 877.845 571.771 885.364 570.877 893.157C579.747 888.447 588.679 883.855 597.671 879.382C625.115 865.009 653.129 848.913 680.58 834.431C683.878 832.691 691.415 833.467 695.53 832.641C703.308 831.079 710.846 828.831 718.484 826.647C697.218 838.505 676.453 851.269 655.301 863.245C608.97 889.479 561.19 914.845 512.22 935.823C475.23 920.154 439.154 900.618 403.582 881.961C354.198 856.059 301.277 818.738 245.463 810.471C294.165 802.934 372.497 851.296 414.463 873.19C447.59 890.473 478.172 906.122 512.465 921.732C521.121 917.393 529.877 913.258 538.727 909.328C525.675 904.765 515.123 899.283 512.513 883.954C510.469 871.946 516.062 864.818 522.681 855.788C514.902 855.518 507.059 855.534 499.297 855.223C407.92 850.982 321.948 810.703 260.206 743.208C198.769 676.71 166.071 588.644 169.223 498.163C173.314 405.606 214.212 321.617 282.581 259.611C336.243 210.945 397.783 180.59 470.068 171.454C486.52 169.375 504.305 168.067 520.861 168.806C502.863 147.079 517.933 119.314 544.843 117.786C534.344 112.604 522.567 106.962 511.865 102.399C461.202 125.327 411.811 150.969 363.907 179.212C340.609 192.607 317.542 206.4 294.718 220.587C282.164 228.622 269.845 237.017 257.776 245.762C249.393 251.801 240.667 258.573 231.893 263.868C249.127 245.665 265.103 233.277 285.037 218.069C341.469 175.544 402.141 138.958 466.086 108.891C478.873 102.783 498.627 92.9988 511.605 88.5214Z"/><path fill="#5E3F9D" transform="scale(1 0.974609)" d="M680.159 787.378C613.439 832.776 530.995 845.171 452.464 830.21C367.545 814.074 292.665 764.508 244.637 692.641C196.821 622.909 178.473 537.117 193.584 453.926C210.823 367.277 261.677 290.982 335.024 241.731C405.721 194.151 492.504 176.805 576.06 193.553C655.382 208.937 742.161 270.47 783.547 339.743L773.995 343.494C764.877 330.316 752.308 312.614 740.826 301.099C705.64 265.811 661.188 229.534 611.42 218.558C592.265 214.333 561.918 222.216 558.495 244.82C557.546 250.712 559.018 256.737 562.577 261.528C567.289 267.848 574.398 269.728 581.639 266.775C584.323 265.428 587.91 263.089 589.697 260.726C588.475 260.929 584.379 263.442 582.826 264.197C569.122 262.766 565.741 244.895 574.895 238.753C589.735 228.798 607.887 249.737 602.321 265.025C594.992 291.343 561.91 291.451 549.364 269.43C544.745 261.142 543.595 251.363 546.164 242.229C553.264 217.864 579.666 210.495 602.334 211.679C518.148 182.406 425.922 198.979 350.685 244.264C365.052 248.617 380.006 256.291 387.129 270.101C397.389 289.991 391.669 316.128 371.175 326.703C362.893 331.015 353.223 331.807 344.35 328.899C335.759 325.984 328.717 319.709 324.835 311.509C318.395 298.014 322.224 281.284 336.311 274.675C344.438 270.862 357.31 271.322 361.65 281.078C365.512 292.376 359.198 301.155 349.07 304.776C347.496 305.332 345.915 305.864 344.326 306.375C352.193 315.061 362.886 316.784 371.691 307.911C383.747 295.76 380.672 272.093 368.31 261.196C360.198 253.717 353.576 251.744 343.515 248.864C328.912 257.762 320.148 265.079 307.235 276.331C259.141 318.239 223.916 374.501 208.115 436.219C191.597 500.74 196.326 568.488 222.371 629.704C228.578 644.291 234.959 658.044 243.307 671.729C287.829 745.136 359.725 797.816 443.137 818.148C484.549 827.941 527.568 828.843 569.355 820.794C581.502 818.484 593.267 814.611 604.394 812.458C584.913 807.489 560.843 803.049 549.719 784.34C545.446 777.154 543.785 768.132 545.967 759.972C548.104 752.176 553.295 745.572 560.366 741.655C567.208 737.844 575.296 736.946 582.807 739.164C589.532 741.157 596.594 746.189 599.965 752.373C602.976 757.948 603.628 764.498 601.774 770.557C599.053 779.4 589.908 788.929 579.071 785.138C570.385 782.099 565.537 767.258 575.127 761.433C576.244 760.754 580.771 761.558 582.302 761.879C583.519 758.815 579.578 756.347 577.125 755.366C563.431 750.451 554.296 768.758 561.285 780.068C569.979 794.139 582.36 799.112 597.044 804.105C621.036 812.264 635.659 799.56 655.976 788.99C666.452 783.541 675.946 775.601 686.049 769.138C684.117 774.943 682.271 781.836 680.159 787.378Z"/><path fill="#5E3F9D" transform="scale(1 0.974609)" d="M690.299 382.523C701.709 381.928 714.293 387.835 722.7 395.323C717.273 403.635 712.076 411.569 707.328 420.288C688.461 455.405 676.039 493.619 670.651 533.118C669.35 543.4 666.114 571.749 672.117 581.227C672.598 581.987 674.846 582.618 675.87 582.639C685.038 582.827 695.248 574.14 701.817 568.73C696.205 578.896 688.916 590.077 676.581 592.658C670.339 593.965 663.377 592.32 658.021 588.749C649.99 583.396 645.009 574.052 643.396 564.661C637.786 525.984 665.323 430.278 685.926 400.673C666.037 412.051 644.964 438.78 631.951 458.721C612.019 489.266 588.121 530.07 583.471 567.223C582.863 572.073 584.339 579.851 585.274 584.493C577.869 584.354 572.432 584.467 565.423 581.446C556.513 577.531 549.556 570.193 546.122 561.087C538.924 542.363 546.287 524.819 551.251 506.646C553.387 498.829 555.913 491.158 558.245 483.412C566.475 456.073 577.245 430.154 588.859 404.15C589 403.613 589.12 402.951 589.235 402.399L588.348 402.169C568.263 408.716 531.996 466.708 521.754 486.246C511.015 505.908 501.301 526.161 492.26 546.66C485.374 562.273 477.663 576.555 482.588 594.094C440.388 583.741 476.147 536.08 488.339 515.676C513.656 473.556 539.766 432.008 574.531 396.9C591.566 379.699 608.896 380.175 627.573 394.539C618.995 402.907 612.706 414.92 607.434 425.554C593.267 453.565 583.144 483.443 577.368 514.296C574.927 527.504 574.916 537.381 573.323 550.027C574.865 546.428 576.431 542.839 578.021 539.262C585.289 523.026 599.653 495.475 608.559 480.396C622.92 456.083 664.612 392.286 690.299 382.523Z"/><path fill="#5E3F9D" transform="scale(1 0.974609)" d="M821.753 602.707C825.474 602.461 827.06 602.805 830.596 603.554C836.292 608.109 841.621 621.114 845.246 628.265C836.553 624.169 827.575 619.433 817.946 618.364C802.448 616.642 790.706 620.11 778.615 629.35C797.933 620.586 815.445 619.03 835.233 625.861C821.781 624.601 815.485 624.031 802.15 627.956C778.408 634.944 752.552 664.809 741.429 686.589C755.125 669.67 775.956 650.703 794.243 639.415C796.409 640.63 798.515 641.948 800.555 643.365C831.921 664.707 840.035 700.372 846.608 735.125C847.079 737.262 847.445 739.454 847.834 741.611C831.847 746.462 816.739 753.838 803.082 763.458C790.433 772.247 780.313 780.74 766.805 788.841C748.675 799.488 729.505 808.256 709.594 815.006C702.769 817.25 696.381 818.636 689.693 820.726C692.23 802.065 696.359 785.118 701.076 767.186C711.85 726.224 726.135 690.838 752.869 657.604C759.835 648.946 764.687 642.279 773.098 634.462C774.038 630.015 774.467 625.601 774.68 621.072C793.496 612.435 800.069 605.266 821.753 602.707Z"/><path fill="#5E3F9D" transform="scale(1 0.974609)" d="M426.061 382.711C434.64 381.81 449.164 382.743 456.596 387.855C461.456 391.18 464.706 396.385 465.559 402.212C467.277 413.487 461.421 425.66 450.206 429.102C447.463 429.944 444.643 430.247 441.812 430.611C445.998 428.543 449.759 427.88 453.526 424.568C456.023 422.372 458.508 418.468 454.942 415.851C446.113 409.666 433.753 409.063 423.145 409.143C398.004 409.389 369.062 414.108 350.053 431.874C342.907 438.554 337.86 449.564 347.505 456.375C371.394 473.245 402.925 475.035 428.402 489.016C441.029 495.946 449.955 502.497 450.862 517.879C451.656 533.671 446.152 549.134 435.559 560.873C416.766 582.021 383.707 592.807 356.121 594.284C340.554 595.117 315.812 594.162 303.554 582.937C296.043 576.058 295.041 569.517 294.52 560.186C298.745 526.657 339.72 518.144 367.429 514.778C352.039 521.131 337.257 524.791 324.772 536.715C298.546 561.953 331.252 570.308 352.816 568.572C376.331 566.329 408.173 559.833 426.204 543.834C463.77 510.505 405.559 499.07 384.56 493.909C362.285 488.435 327.258 479.376 325.162 453.514C322.633 422.297 357.581 398.735 383.699 390.442C397.988 385.7 411.131 384.064 426.061 382.711Z"/><path fill="#5E3F9D" transform="scale(1 0.974609)" d="M800.074 787.158C817.714 786.209 831.422 795.247 835.769 812.735C842.494 839.494 823.171 868.384 796.755 874.543C780.488 877.893 759.713 873.131 755.499 854.195C751.641 836.86 771.259 813.723 789.132 826.369C795.928 831.178 800.49 844.526 793.341 851.766C791.005 854.155 787.755 855.424 784.418 855.249C780.75 855.063 776.546 853.031 774.254 850.192C770.467 845.503 770.79 842.718 771.087 837.287C755.189 873.011 812.496 876.025 829.068 839.751C833.202 830.857 833.507 820.657 829.91 811.533C824.213 796.685 805.308 786.836 790.746 795.742C780.515 801.999 769.767 811.181 760.079 818.57C745.576 829.68 730.711 840.31 715.507 850.441C651.643 894.168 583.506 931.301 512.145 961.271C450.651 934.842 391.306 903.672 334.644 868.044C315.831 856.254 262.005 821.083 241.224 823.454C236.831 823.956 232.433 825.692 229.663 829.279C226.942 832.802 226.328 837.355 226.948 841.669C227.845 847.909 230.827 853.523 235.952 857.282C240.175 860.38 245.555 862.229 250.84 861.302C252.482 861.014 254.442 860.524 255.435 859.091C254.732 856.95 250.099 852.515 248.636 849.874C244.863 842.831 245.248 836.758 252.692 832.831C260.417 828.754 267.949 833.585 271.465 841.068C273.364 845.145 273.532 849.818 271.932 854.021C266.942 867.494 249.436 870.191 237.277 865.678C229.535 862.773 223.27 856.901 219.872 849.362C216.949 842.915 216.173 834.061 218.921 827.545C226.973 808.454 253.701 813.106 268.764 819.025C283.222 824.707 296.27 832.774 309.501 840.445C325.941 850.04 342.431 859.551 358.968 868.977C408.731 897.492 459.76 923.736 511.899 947.629C529.392 938.949 549.089 930.708 567.162 921.945C606.51 903.192 644.913 882.518 682.234 859.998C695.56 851.996 708.685 843.665 721.597 835.011C735.908 825.559 787.395 789.326 800.074 787.158Z"/><path fill="#5E3F9D" transform="scale(1 0.974609)" d="M510.384 62.9634C515.585 62.5048 530.908 70.9483 536.666 73.5751C583.889 95.4331 629.871 119.88 674.4 146.806L719.975 174.371C734.857 183.359 777.455 212.82 792.719 195.349C795.559 192.041 796.956 187.733 796.596 183.387C795.463 168.804 780.232 161.523 766.952 162.826C771.448 167.777 778.785 178.188 775.562 184.551C761.674 211.975 736.17 167.327 762.918 158.06C784.592 150.551 814.125 171.115 802.341 195.664C799.635 201.408 794.693 205.793 788.667 207.797C764.188 215.889 724.969 188.346 704.33 176.436C686.558 166.179 668.529 155.955 650.525 146.067C617.605 128.148 584.318 110.911 550.686 94.3652C537.866 88.0939 524.377 82.4521 511.809 76.1388C498.347 83.6167 478.673 91.558 464.233 98.3296C440.934 109.457 417.938 121.209 395.271 133.573C366.24 148.724 329.608 171.226 302.416 189.452L269.196 211.904C246.968 226.915 217.69 250.62 195.369 221.837C188.977 213.667 186.138 203.27 187.492 192.985C189.271 179.602 197.092 167.144 207.735 158.989C217.503 151.697 229.785 146.817 242.07 148.485C258.033 150.652 272.236 163.444 268.917 180.867C267.564 188.148 263.245 194.54 256.994 198.512C247.034 204.844 234.63 203.299 227.881 192.898C223.242 185.748 225.836 174.329 233.853 170.597C243.613 166.054 249.212 173.771 253.203 181.463C256.421 172.618 256.695 164.098 246.535 159.962C219.01 148.607 181.913 183.878 194.965 211.789C207.335 238.241 231.56 233.184 250.476 217.735C257.822 211.735 265.799 205.516 273.218 199.669C287.066 188.646 301.358 178.193 316.059 168.337C377.35 127.138 442.418 91.8547 510.384 62.9634Z"/><path fill="#5E3F9D" transform="scale(1 0.974609)" d="M180.857 223.696C182.946 223.511 187.167 224.428 189.178 225.182C204.991 231.116 207.078 250.995 202.659 264.958C193.986 292.36 178.714 318.272 164.478 343.148C140.705 384.688 115.9 425.635 93.6679 468.025C87.5351 479.739 77.2114 498.95 72.8424 510.778C80.5746 528.313 89.8774 546.353 98.7077 563.329C117.142 598.396 136.369 633.039 156.375 667.233L181.13 709.551C193.629 731.25 209.408 758.318 205.383 784.658C204.545 790.147 200.317 796.895 195.435 799.679C181.142 807.831 164.427 798.516 156.967 785.567C149.528 773.012 152.318 757.559 165.317 750.131C172.68 745.923 183.545 744.789 188.311 753.518C191.966 760.212 191.994 769.024 184.157 772.817C173.934 777.219 166.095 771.839 161.817 762.879C156.463 773.085 160.108 780.793 168.26 787.842C172.774 791.436 179.955 794.637 185.696 792.937C203.773 787.585 194.639 759.632 189.729 747.963C180.681 726.459 167.411 707.03 155.326 687.252C132.802 650.691 111.051 613.66 90.0855 576.184C81.8011 561.571 74.0136 546.683 66.7364 531.544C63.8872 525.705 59.0004 515.929 56.9601 509.963C66.1044 489.244 77.6944 468.429 88.8162 448.682C108.852 413.642 129.432 378.917 150.551 344.518C162.7 324.297 175.941 303.454 186.333 282.378C190.796 272.364 195.32 261.317 195.131 250.19C194.958 240.071 188.416 232.833 177.976 234.112C172.582 234.773 167.673 237.554 164.332 241.84C158.774 248.958 158.698 255.815 159.836 264.12C160.168 263.509 160.506 262.901 160.849 262.296C163.393 257.825 166.827 253.82 172.043 252.531C175.005 251.775 178.146 252.251 180.751 253.85C185.303 256.636 186.525 260.864 187.748 265.575C185.819 273.331 183.445 278.622 174.666 280.219C170.315 281.055 165.812 280.071 162.205 277.497C147.222 266.642 153.585 233.55 169.955 226.693C174.437 224.816 176.059 224.228 180.857 223.696Z"/><path fill="#5E3F9D" transform="scale(1 0.974609)" d="M209.172 256.364L209.667 256.821C210.715 260.514 209.071 270.098 208.492 274.17C203.115 313.513 185.227 348.607 167.683 383.582C146.241 426.327 119.914 467.519 99.2639 510.528C107.16 529.142 117.565 547.531 127.282 565.265L159.045 623.764C181.06 664.547 216.392 729.104 209.516 776.529C208.871 773.188 208.357 766.657 207.839 762.879C199.54 715.477 163.219 659.01 139.806 616.727C119.974 580.912 100.6 547.774 83.0456 510.509C94.4765 487.43 106.471 466.685 119.173 444.367C134.169 418.339 148.843 392.127 163.191 365.737C175.237 343.473 207.947 281.032 209.172 256.364Z"/><path fill="#5E3F9D" transform="scale(1 0.974609)" d="M819.609 631.689C852.36 627.339 863.46 654.477 875.921 679.041C887.636 702.134 893.369 725.313 899.009 750.298C894.343 746.221 892.422 744.746 886.897 742.007C875.254 736.875 866.076 737.803 853.808 740.282C851.95 705.309 833.585 652.313 800.485 636.132C807.59 634.007 812.297 632.591 819.609 631.689Z"/><path fill="#5E3F9D" transform="scale(1 0.974609)" d="M840.677 220.167C849.981 220.632 856.428 222.932 862.179 230.82C870.74 242.562 872.771 264.103 859.743 273.471C855.892 276.241 849.457 277.287 844.865 276.187C841.049 275.292 837.775 272.855 835.823 269.456C829.007 257.828 838.332 246.601 851.068 250.407C857.297 252.269 859.879 256.965 862.617 262.369C864.205 255.614 864.282 251.669 862.257 244.859C857.909 230.236 835.52 221.672 828.317 238.824C823.353 250.644 829.742 266.265 834.513 277.509C841.39 292.952 848.824 308.142 856.8 323.047C861.584 332.013 867.36 341.848 871.625 350.936C855.648 342.078 858.241 347.222 848.567 329.327C836.828 307.613 791.36 225.722 840.677 220.167Z"/><path fill="#5E3F9D" transform="scale(1 0.974609)" d="M938.855 560.205L939.195 560.421C938.121 564.863 926.98 584.846 924.273 589.855C910.906 614.591 897.367 639.234 883.659 663.783C882.726 662.441 881.804 660.762 880.964 659.335C879.587 656.564 877.615 653.398 876.018 650.69C882.991 640.391 893.322 620.091 899.267 608.831L924.236 562.657C929.579 561.949 933.53 561.322 938.855 560.205Z"/><path fill="#5E3F9D" transform="scale(1 0.974609)" d="M899.905 557.765C902.506 559.041 908.65 560.925 911.625 561.928C908.596 568.912 903.865 577.322 900.238 584.138C890.484 602.469 879.871 620.372 870.444 638.889C870.017 639.757 870.353 639.382 869.299 639.876C867.132 638.662 861.709 631.718 859.944 629.578C865.065 622.735 871.042 610.755 875.252 602.9C883.223 587.722 891.442 572.675 899.905 557.765Z"/><path fill="#5E3F9D" transform="scale(1 0.974609)" d="M259.247 764.569C260.559 764.867 259.984 764.563 260.861 765.734C260.548 783.224 233.107 798.526 220.516 807.021C213.428 811.804 205.963 817.37 198.727 821.867L198.175 822.338L197.607 822.231C198.653 819.877 209.645 807.795 212.029 805.196C225.528 790.476 238.482 768.941 259.247 764.569Z"/><path fill="#5E3F9D" transform="scale(1 0.974609)" d="M869.626 753.212C875.582 753.856 874.47 758.406 874.331 763.074C873.973 768.666 872.873 774.61 870.571 779.751C859.949 803.471 831.061 807.287 821.428 779.875C820.351 776.271 820.238 773.519 819.989 769.81C821.618 768.04 824.505 765.79 826.42 764.191C827.09 787.791 845.366 798.34 862.417 778.202C868.034 771.569 869.253 761.678 869.626 753.212Z"/><path fill="#5E3F9D" transform="scale(1 0.974609)" d="M824.363 201.029C824.473 201.276 824.582 201.523 824.692 201.77C821.338 207.295 815.973 213.504 812.017 218.706C796.338 239.327 786.977 249.639 763.757 261.537L763.261 261.139C763.274 259.498 765.429 256.1 766.214 254.477C773.661 239.074 786.659 229.692 799.816 219.538C807.93 213.277 816.113 207.107 824.363 201.029Z"/><path fill="#5E3F9D" transform="scale(1 0.974609)" d="M393.365 623.546C412.765 621.958 412.961 643.03 395.488 650.651C392.334 651.04 389.401 651.033 386.471 649.58C384.002 648.378 382.134 646.216 381.303 643.598C378.376 634.417 384.878 626.418 393.365 623.546ZM394.569 647.475C406.15 642.902 407.883 626.565 394.133 626.958C382.346 632.759 381.626 647.88 394.569 647.475Z"/><path fill="#5E3F9D" transform="scale(1 0.974609)" d="M625.326 623.198L630.99 623.278C630.137 629.213 628.093 645.176 625.356 649.81C624.015 650.525 624.707 650.41 623.208 650.165C622.204 648.569 622.608 647.258 622.799 645.312C620.066 647.354 618.733 648.354 615.723 650C615.058 650.251 613.51 650.663 612.83 650.762C611.181 650.99 609.508 650.561 608.173 649.565C600.308 643.632 608.15 627.24 616.43 625.014C620.393 623.949 621.18 623.533 625.326 623.198ZM612.643 647.301C620.897 644.639 627.546 635.948 625.838 627.242L625.23 626.57L623.58 626.499C620.825 627.239 619.087 627.632 616.619 629.211C610.437 633.165 604.746 641.766 612.643 647.301Z"/><path fill="#5E3F9D" transform="scale(1 0.974609)" d="M542.377 611.812C543.165 611.847 545.064 611.925 545.567 612.373C549.527 615.903 552.92 628.411 555.055 633.709C558.127 629.636 570.021 611.583 574.797 613.405C575.603 617.005 569.914 644.942 567.826 649.71C567.399 650.686 567.006 650.691 566.248 650.921L565.482 650.348C565.081 649.527 564.274 647.762 564.464 646.894C565.972 640.023 567.674 631.909 569.089 625.113C569.256 624.173 569.408 623.231 569.546 622.287C568.351 622.402 565.998 626.107 564.96 627.301C561.189 631.635 557.114 635.54 553.389 639.927C550.826 633.826 547.05 625.147 545.354 618.93C544.059 624.52 540.654 648.986 537.173 651.085C536.686 650.794 535.786 650.397 535.758 649.957C535.325 643.147 540.782 617.341 542.377 611.812Z"/><path fill="#5E3F9D" transform="scale(1 0.974609)" d="M814.437 248.788C814.978 250.045 816.171 260.371 816.514 262.666C820.113 286.75 829.128 309.181 838.943 331.299C839.858 333.359 841.874 337.627 841.844 339.689C838.863 339.181 836.006 338.822 833.009 338.446C822.847 313.102 810.006 276.226 814.437 248.788Z"/><path fill="#5E3F9D" transform="scale(1 0.974609)" d="M592.28 623.599C595.139 623.555 598.632 623.509 600.685 625.761C610.626 636.667 588.177 637.064 583.469 640.915C583.041 641.878 582.572 642.559 583.224 643.57C587.141 649.652 592.921 647.902 597.694 645.461C598.075 645.21 598.622 645.094 599.094 644.946C599.439 645.814 599.343 645.272 598.941 646.412C597.087 651.515 587.92 651.097 583.907 649.558C576.954 646.893 576.94 639.238 580.007 633.514C582.843 628.221 586.682 625.392 592.28 623.599ZM589.697 635.73C592.68 634.642 599.116 632.256 597.326 627.995C595.57 626.821 594.324 626.738 592.218 626.962C589.402 628.226 583.021 631.821 584.638 635.624C586.579 636.5 587.404 636.152 589.697 635.73Z"/><path fill="#5E3F9D" transform="scale(1 0.974609)" d="M365.152 613.638C367.984 613.39 376.25 613.304 377.857 615.779L377.441 616.51C372.584 618.679 364.122 615.123 361.119 619.881C355.508 628.772 374.589 629.762 375.626 638.664C376.608 647.108 369.382 649.802 363.117 650.918C359.664 651.164 353.366 650.894 351.29 647.719L351.671 647.1C357.463 644.931 366.667 650.985 370.547 643.101C374.301 635.472 356.259 632.663 355.283 625.518C354.382 618.918 359.365 615.056 365.152 613.638Z"/><path fill="#5E3F9D" transform="scale(1 0.974609)" d="M471.036 611.083C473.819 610.74 478.142 610.095 480.087 612.631C478.39 615.002 472.839 614.395 470.655 615.52C469.415 616.158 467.999 621.877 467.555 623.473C469.817 623.414 474.059 622.772 474.822 625.391C472.898 627.661 469.729 627.066 466.968 627.004C465.311 635.461 462.921 652.457 457.697 658.793C454.994 660.192 451.405 661.396 448.637 659.521C447.927 657.762 448.115 658.71 448.557 656.503C449.887 655.396 451.952 657.221 455.024 656.049C458.083 653.053 461.791 632.906 462.26 628.095C461.426 626.565 460.855 627.615 457.97 626.524C457.241 625.262 457.298 625.924 457.617 624.522C459.45 623.085 460.726 623.411 463.361 623.146C465.333 617.015 465.62 614.73 471.036 611.083Z"/><path fill="#5E3F9D" transform="scale(1 0.974609)" d="M480.872 622.739C482.37 623.175 483.665 623.298 484.512 624.504C485.106 630.362 479.105 640.807 482.316 646.064C483.175 646.69 483.919 647.152 484.969 647.003C498.226 645.121 494.59 632.245 499.658 624.184C500.072 623.525 500.366 623.696 501.201 623.651L502.183 624.69C502.673 627.222 501.892 630.284 501.444 632.921C501.171 636.95 499.396 648.063 496.488 650.491C492.856 650.332 495.361 647.124 494.082 645.863C493.217 646.454 492.347 647.035 491.469 647.606C470.749 661.05 477.639 632.643 480.872 622.739Z"/><path fill="#5E3F9D" transform="scale(1 0.974609)" d="M857.289 754.621C858.576 754.494 861.157 754.298 861.447 755.832C863.76 768.031 854.394 773.216 844.464 769.689C840.437 767.341 839.099 764.483 837.271 760.507C843.801 758.088 850.489 756.121 857.289 754.621Z"/><path fill="#5E3F9D" transform="scale(1 0.974609)" d="M417.767 622.719C418.199 622.832 419.685 623.147 419.941 623.597C422.745 628.521 414.272 644.485 419.794 647.677C424.691 647.639 428.322 643.361 431.619 640.106C432.444 635.59 433.151 625.706 437.17 623.332L437.865 624.036C439.162 628 438.442 629.309 437.413 633.391C436.735 637.353 435.005 648.965 431.726 650.986C429.99 649.316 430.273 647.539 430.375 645.287C414.752 658.108 411.213 647.597 415.042 632.357C415.865 629.084 416.325 625.859 417.767 622.719Z"/><path fill="#5E3F9D" transform="scale(1 0.974609)" d="M656.032 623.569C658.538 623.393 665.503 623.105 665.228 626.821C661.432 628.436 656.605 624.923 654.115 629.388C654.499 634.281 661.941 637.264 663.543 642.209C665.475 648.174 659.208 650.102 654.54 650.801C652.035 650.819 649.441 650.649 647.178 649.58C646.117 648.202 646.336 648.952 646.418 647.279C648.927 643.918 655.813 651.649 659.839 644.897C659.613 638.553 638.971 631.233 656.032 623.569Z"/><path fill="#5E3F9D" transform="scale(1 0.974609)" d="M451.241 610.169C452.784 610.632 452.925 610.649 454.313 611.431C455.62 614.642 448.37 644.65 447.171 650.48C445.489 650.141 445.368 650.173 443.768 649.389C442.711 646.047 449.859 615.505 451.241 610.169Z"/><path fill="#5E3F9D" transform="scale(1 0.974609)" d="M515.688 610.647C517.358 610.984 517.369 610.913 518.821 611.749C520.126 614.008 513.021 646.367 512.015 651.171C510.686 650.817 509.879 650.553 508.608 650.101C507.416 647.579 514.705 615.434 515.688 610.647Z"/><path fill="#5E3F9D" transform="scale(1 0.974609)" d="M643.013 610.225C644.347 610.42 644.317 610.424 645.548 610.987C646.779 614.778 639.773 646.015 637.598 651.063C636.83 650.815 634.872 650.055 634.911 649.416C635.389 641.589 640.824 616.2 643.013 610.225Z"/><path fill="#FEFEFE" fill-opacity="0.011764706" transform="scale(1 0.974609)" d="M582.826 264.197C584.379 263.442 588.475 260.929 589.697 260.726C587.91 263.089 584.323 265.428 581.639 266.775L580.629 265.08C581.651 264.225 581.34 264.525 582.826 264.197Z"/></svg>